<?xml version="1.0" encoding="UTF-8"?>
<svg version="1.1" xmlns="http://www.w3.org/2000/svg" width="500" height="500">
<path d="M0 0 C1.43230957 0.02682861 1.43230957 0.02682861 2.89355469 0.05419922 C10.01580946 0.34543919 13.59765006 1.72265006 18.6875 6.8125 C19.0234375 8.765625 19.0234375 8.765625 19.0625 11.0625 C19.09085937 11.81015625 19.11921875 12.5578125 19.1484375 13.328125 C18.6875 15.8125 18.6875 15.8125 16.68969727 18.53369141 C14.38283667 22.31141824 14.18458419 24.37330231 14.19140625 28.7578125 C14.1892234 29.73450394 14.1892234 29.73450394 14.18699646 30.73092651 C14.18864818 32.10419196 14.20012792 33.47747732 14.22094727 34.85058594 C14.24964007 36.91164526 14.24159536 38.97008085 14.22851562 41.03125 C14.24413799 52.43446379 15.77905975 62.74777226 21.6875 72.625 C22.07631348 73.2967627 22.46512695 73.96852539 22.86572266 74.66064453 C26.05575596 80.04374697 29.68216012 85.03660675 33.45019531 90.02441406 C55.59273775 119.57352122 55.59273775 119.57352122 56.375 132.1875 C55.22411025 138.25582777 53.86120251 142.31795641 48.65667725 145.8963623 C44.32748501 148.29400325 40.48841135 148.37825794 35.62207031 148.33007812 C34.74138885 148.3370874 33.8607074 148.34409668 32.95333862 148.35131836 C30.05710818 148.36884662 27.16186452 148.35728989 24.265625 148.34375 C22.23931696 148.34644736 20.21301018 148.35033181 18.18670654 148.35534668 C13.94335588 148.36123557 9.7003426 148.35270188 5.45703125 148.33398438 C0.04247622 148.31125376 -5.37128304 148.32428461 -10.78580856 148.34827423 C-14.97082399 148.36279852 -19.15565403 148.35809493 -23.34067535 148.34776306 C-25.33558498 148.34511103 -27.33051192 148.34831138 -29.32540131 148.35768127 C-53.87839711 148.44766855 -53.87839711 148.44766855 -61.9375 140.625 C-64.93840202 136.53681463 -65.55901645 132.80324015 -65.3125 127.8125 C-63.88563095 120.16024223 -60.58521113 114.77136319 -55.8125 108.75 C-54.54581353 107.08872608 -53.28285072 105.42460702 -52.0234375 103.7578125 C-51.39663086 102.93055664 -50.76982422 102.10330078 -50.12402344 101.25097656 C-40.11921844 87.78359215 -28.85118217 71.90370812 -27.3125 54.8125 C-27.2307251 54.12816895 -27.1489502 53.44383789 -27.06469727 52.73876953 C-26.25233073 45.63398015 -26.12904658 38.58375765 -26.125 31.4375 C-26.10663086 29.69533203 -26.10663086 29.69533203 -26.08789062 27.91796875 C-26.08595703 26.80292969 -26.08402344 25.68789062 -26.08203125 24.5390625 C-26.07792236 23.53439941 -26.07381348 22.52973633 -26.06958008 21.49462891 C-26.3202667 18.72674622 -27.02150176 17.2283191 -28.3125 14.8125 C-28.97548343 7.85117403 -28.97548343 7.85117403 -26.4375 3.875 C-20.01329376 -2.360259 -8.31250527 -0.26121891 0 0 Z " fill="#FCF7F8" transform="translate(254.3125,198.1875)"/>
<path d="M0 0 C5.27581875 3.05997487 7.88364238 7.54544924 10.9921875 12.703125 C12.48906941 15.16104004 14.02204258 17.54093767 15.6328125 19.921875 C24.69481145 33.49877752 24.69481145 33.49877752 24 42 C20.20341726 44.53105516 17.15228804 44.29554437 12.75244141 44.29052734 C11.91147415 44.29724457 11.0705069 44.30396179 10.20405579 44.31088257 C7.4198315 44.32990363 4.63584775 44.33378887 1.8515625 44.3359375 C-0.08273417 44.34236275 -2.01702986 44.3490909 -3.95132446 44.35610962 C-8.00826267 44.36809279 -12.06511565 44.37178939 -16.12207031 44.37060547 C-21.31980739 44.37040226 -26.51699781 44.39770164 -31.71460533 44.43214989 C-35.71062732 44.45439164 -39.70651721 44.45844384 -43.70259476 44.45738602 C-45.61874907 44.45974619 -47.5349068 44.4685931 -49.45100021 44.48405075 C-52.13227308 44.50365499 -54.81236023 44.49789476 -57.49365234 44.48583984 C-58.67988945 44.50269836 -58.67988945 44.50269836 -59.89009094 44.51989746 C-63.59584827 44.47757672 -65.80419106 44.11981444 -68.99258423 42.16885376 C-71 40 -71 40 -71.625 36.8125 C-69.91075945 26.35563264 -60.08833203 12.89326254 -52 6 C-47.97943716 5.47881593 -45.81936717 5.47326396 -42.375 7.6875 C-40 10 -40 10 -37.625 12.75 C-35.13224507 15.26737041 -35.13224507 15.26737041 -31.625 15.625 C-26.01426633 14.65763213 -22.52102551 11.96261356 -19.0625 7.5 C-14.09509145 1.47889873 -7.83924416 -1.74042921 0 0 Z " fill="#D12505" transform="translate(273,291)"/>
<path d="M0 0 C3.3958048 1.35832192 5.9637727 2.97584847 9 5 C9 5.66 9 6.32 9 7 C10.32 7.66 11.64 8.32 13 9 C13 9.66 13 10.32 13 11 C13.66 11 14.32 11 15 11 C20.66168477 18.33508913 26.42106155 27.46716646 26 37 C26.66 37 27.32 37 28 37 C28 38.65 28 40.3 28 42 C24.65750371 41.40312566 22.53563658 40.26396123 20 38 C20 37.34 20 36.68 20 36 C19.28714844 35.72800781 18.57429688 35.45601562 17.83984375 35.17578125 C14.98052327 33.99193604 12.30108336 32.62706046 9.5625 31.1875 C3.90902743 28.30478874 -1.8169974 26.25137624 -7.87109375 24.37109375 C-11.4762703 22.79129728 -13.46406181 20.9869762 -16 18 C-17.20643566 14.38069302 -17.32268559 11.80768995 -17 8 C-12.70700539 0.15418226 -8.43090076 -0.87986036 0 0 Z " fill="#D1290C" transform="translate(217,153)"/>
<path d="M0 0 C4.63235294 2.26470588 4.63235294 2.26470588 6 5 C6.82159701 9.87876162 7.10499107 14.22598208 4.42578125 18.52734375 C3.03252914 20.1647467 1.61472084 21.78150439 0.17578125 23.37890625 C-4.16973596 28.61381119 -7.61808406 35.29691351 -9 42 C-10.32 41.67 -11.64 41.34 -13 41 C-16.76603529 29.8139785 -18.05402016 18.02333532 -13 7 C-9.43222511 1.50248524 -6.62716077 -0.51977732 0 0 Z " fill="#CD270A" transform="translate(261,144)"/>
<path d="M0 0 C1.0725 0.2475 2.145 0.495 3.25 0.75 C2.59 1.41 1.93 2.07 1.25 2.75 C-0.07 2.75 -1.39 2.75 -2.75 2.75 C-2.75 3.41 -2.75 4.07 -2.75 4.75 C-2.09 4.75 -1.43 4.75 -0.75 4.75 C-0.75 6.73 -0.75 8.71 -0.75 10.75 C0.24 11.08 1.23 11.41 2.25 11.75 C1.92 13.73 1.59 15.71 1.25 17.75 C-0.07 17.75 -1.39 17.75 -2.75 17.75 C-2.09 18.08 -1.43 18.41 -0.75 18.75 C-1.35705486 22.87797305 -2.68999331 26.12438822 -4.75 29.75 C-5.41 30.08 -6.07 30.41 -6.75 30.75 C-7.245 32.235 -7.245 32.235 -7.75 33.75 C-8.41 33.75 -9.07 33.75 -9.75 33.75 C-12.35102289 25.32973945 -14.27063791 17.1467132 -10.921875 8.6484375 C-6.06794371 -0.40452958 -6.06794371 -0.40452958 0 0 Z " fill="#D02506" transform="translate(258.75,147.25)"/>
<path d="M0 0 C3 2 3 2 3.8125 4.875 C4.08857809 9.47630148 4.08857809 9.47630148 2 12 C-0.33741152 13.14485462 -2.5767192 14.08382579 -5 15 C-9.85429409 17.05788877 -14.55667331 19.13333762 -19 22 C-19.97910979 19.38904055 -20.23566343 17.62762178 -19.24609375 14.9921875 C-17.67092808 11.84185615 -15.95576614 8.93364921 -14 6 C-13.34 6 -12.68 6 -12 6 C-12 5.34 -12 4.68 -12 4 C-4.44444444 -0.74074074 -4.44444444 -0.74074074 0 0 Z " fill="#E26D68" transform="translate(277,171)"/>
<path d="M0 0 C6.29511189 5.62063561 8.38379882 10.85293198 8.921875 19.05859375 C8.94765625 19.69925781 8.9734375 20.33992188 9 21 C5.20341726 23.53105516 2.15228804 23.29554437 -2.24755859 23.29052734 C-3.50900948 23.30060318 -3.50900948 23.30060318 -4.79594421 23.31088257 C-7.5801685 23.32990363 -10.36415225 23.33378887 -13.1484375 23.3359375 C-15.08273417 23.34236275 -17.01702986 23.3490909 -18.95132446 23.35610962 C-23.00826267 23.36809279 -27.06511565 23.37178939 -31.12207031 23.37060547 C-36.31980739 23.37040226 -41.51699781 23.39770164 -46.71460533 23.43214989 C-50.71062732 23.45439164 -54.70651721 23.45844384 -58.70259476 23.45738602 C-60.61874907 23.45974619 -62.5349068 23.4685931 -64.45100021 23.48405075 C-67.13227308 23.50365499 -69.81236023 23.49789476 -72.49365234 23.48583984 C-73.67988945 23.50269836 -73.67988945 23.50269836 -74.89009094 23.51989746 C-78.59022158 23.47764098 -80.80975102 23.11536615 -84.00039673 21.18057251 C-86 19 -86 19 -86.5 15.625 C-85.97677032 11.83158484 -84.9240062 9.28684393 -83 6 C-82.01 7.485 -82.01 7.485 -81 9 C-81.66 9 -82.32 9 -83 9 C-83 12.63 -83 16.26 -83 20 C-38.45 20.495 -38.45 20.495 7 21 C6.505 15.555 6.505 15.555 6 10 C5.01 10 4.02 10 3 10 C1.87119943 6.68885166 0.78697325 3.41021743 0 0 Z " fill="#C65844" transform="translate(288,312)"/>
<path d="M0 0 C2.4375 1.5625 2.4375 1.5625 4 4 C3.78571429 10.21428571 3.78571429 10.21428571 1 13 C-2.375 13.4375 -2.375 13.4375 -6 13 C-8.5 10.8125 -8.5 10.8125 -10 8 C-9.93107581 5.10518392 -9.38861317 3.59314642 -7.8125 1.1875 C-5.06937448 -0.60972017 -3.20418874 -0.45774125 0 0 Z " fill="#CB2F15" transform="translate(245,277)"/>
<path d="M0 0 C1.875 1.5 1.875 1.5 3 3 C1.783125 2.896875 0.56625 2.79375 -0.6875 2.6875 C-4.17260292 2.69985852 -4.92325957 2.94611842 -7.9375 5.0625 C-10.32870991 8.4681626 -10.7579806 10.88567014 -11 15 C-11.66 14.67 -12.32 14.34 -13 14 C-13.94677094 20.96004584 -14.00748064 26.26903551 -12 33 C-12 34.32 -12 35.64 -12 37 C-11.34 37 -10.68 37 -10 37 C-9.896875 36.236875 -9.79375 35.47375 -9.6875 34.6875 C-8.93370671 31.74085352 -8.26931329 30.92018817 -6 29 C-5.443125 28.443125 -4.88625 27.88625 -4.3125 27.3125 C-3.879375 26.879375 -3.44625 26.44625 -3 26 C-4.72066106 31.44876003 -6.84705349 36.71169451 -9 42 C-10.32 41.67 -11.64 41.34 -13 41 C-16.76603529 29.8139785 -18.05402016 18.02333532 -13 7 C-9.44359504 1.52000494 -6.62373873 -0.54071337 0 0 Z " fill="#EA7A7A" transform="translate(261,144)"/>
<path d="M0 0 C3.3958048 1.35832192 5.9637727 2.97584847 9 5 C8.67 5.66 8.34 6.32 8 7 C5.525 6.505 5.525 6.505 3 6 C3 5.34 3 4.68 3 4 C0.03 3.67 -2.94 3.34 -6 3 C-6 3.66 -6 4.32 -6 5 C-8.97 4.505 -8.97 4.505 -12 4 C-12 4.66 -12 5.32 -12 6 C-12.99 6.495 -12.99 6.495 -14 7 C-14.68472665 8.88764903 -14.68472665 8.88764903 -15.125 11.0625 C-15.29257813 11.79597656 -15.46015625 12.52945313 -15.6328125 13.28515625 C-15.75398437 13.85105469 -15.87515625 14.41695312 -16 15 C-16.33 15 -16.66 15 -17 15 C-17.45675183 9.29060212 -16.62105556 6.44872541 -13 2 C-8.74340592 -0.83772939 -4.9975796 -0.52155426 0 0 Z " fill="#D9524A" transform="translate(217,153)"/>
<path d="M0 0 C2.33294775 -0.04241723 4.66702567 -0.04092937 7 0 C8 1 8 1 8.0625 4.0625 C8.041875 5.031875 8.02125 6.00125 8 7 C7.01 7 6.02 7 5 7 C5 7.99 5 8.98 5 10 C2.36 10 -0.28 10 -3 10 C-2.39009109 6.44219804 -1.4216319 3.3171411 0 0 Z " fill="#D32508" transform="translate(271,173)"/>
<path d="M0 0 C3 0.25 3 0.25 5 2.25 C5.3125 4.75 5.3125 4.75 5 7.25 C1.77626323 9.39915785 0.73296326 9.63286803 -3 9.25 C-5 7.25 -5 7.25 -5.25 4.75 C-4.86630891 0.91308908 -3.76694968 0.31391247 0 0 Z " fill="#C04631" transform="translate(252,257.75)"/>
<path d="M0 0 C2.4375 0.375 2.4375 0.375 5 1 C5.33 1.66 5.66 2.32 6 3 C4.02 3.99 4.02 3.99 2 5 C1.79859524 8.62528568 2.14223235 10.86501708 4 14 C-1.75 13.25 -1.75 13.25 -4 11 C-3.96712417 8.27130593 -3.43602229 5.7033382 -3 3 C-2.01 2.67 -1.02 2.34 0 2 C0 1.34 0 0.68 0 0 Z " fill="#D12505" transform="translate(205,157)"/>
<path d="M0 0 C2.02350324 3.03525486 2.32124018 4.19426202 2.625 7.6875 C2.69976562 8.49574219 2.77453125 9.30398437 2.8515625 10.13671875 C2.90054688 10.75160156 2.94953125 11.36648437 3 12 C3.66 12 4.32 12 5 12 C5.1546875 10.8553125 5.1546875 10.8553125 5.3125 9.6875 C6.06629329 6.74085352 6.73068671 5.92018817 9 4 C9.8353125 3.1646875 9.8353125 3.1646875 10.6875 2.3125 C11.3371875 1.6628125 11.3371875 1.6628125 12 1 C10.27933894 6.44876003 8.15294651 11.71169451 6 17 C4.078125 16.65234375 4.078125 16.65234375 2 16 C-0.60904748 10.91235741 -0.198045 5.56726505 0 0 Z " fill="#DC645E" transform="translate(246,169)"/>
<path d="M0 0 C0.33 0.66 0.66 1.32 1 2 C-1.31 2 -3.62 2 -6 2 C-6.99 5.3 -7.98 8.6 -9 12 C-7.02 12 -5.04 12 -3 12 C-3 12.33 -3 12.66 -3 13 C-5.64 13.33 -8.28 13.66 -11 14 C-13.125 7.375 -13.125 7.375 -12 4 C-7.88366546 1.22939021 -5.09453672 -0.6175196 0 0 Z " fill="#D64D3F" transform="translate(277,171)"/>
<path d="M0 0 C1.65 0 3.3 0 5 0 C4.85969405 3.01657791 4.70648535 5.23841273 2.59765625 7.51171875 C1.11095765 8.73256066 -0.44134898 9.87246522 -2 11 C-3.14947895 7.44706507 -3.0868937 6.20023331 -1.5625 2.6875 C-1.046875 1.800625 -0.53125 0.91375 0 0 Z " fill="#D95E51" transform="translate(260,182)"/>
<path d="M0 0 C3.63 0 7.26 0 11 0 C11.33 1.32 11.66 2.64 12 4 C12.763125 3.896875 13.52625 3.79375 14.3125 3.6875 C15.199375 3.790625 16.08625 3.89375 17 4 C18.8125 6.5 18.8125 6.5 20 9 C15.71614255 7.71484276 11.9236306 5.99140961 7.96875 3.953125 C5.38940574 2.70439484 2.74144703 1.82243411 0 1 C0 0.67 0 0.34 0 0 Z " fill="#E16D6F" transform="translate(214,178)"/>
<path d="M0 0 C3.5625 0.3125 3.5625 0.3125 5.5 1.8125 C5.850625 2.3075 6.20125 2.8025 6.5625 3.3125 C5.49 3.291875 4.4175 3.27125 3.3125 3.25 C-0.70080656 3.22259112 -0.70080656 3.22259112 -4.4375 4.3125 C-5.54586423 6.19566159 -5.54586423 6.19566159 -6.4375 8.3125 C-8.0625 10.0625 -8.0625 10.0625 -9.4375 11.3125 C-10.0975 10.9825 -10.7575 10.6525 -11.4375 10.3125 C-10.48117001 9.01934939 -9.52236149 7.72803147 -8.5625 6.4375 C-8.02882812 5.71820313 -7.49515625 4.99890625 -6.9453125 4.2578125 C-3.92139631 0.35649057 -3.92139631 0.35649057 0 0 Z " fill="#BF3E26" transform="translate(224.4375,296.6875)"/>
<path d="M0 0 C0.66 0 1.32 0 2 0 C2 0.66 2 1.32 2 2 C2.66 2 3.32 2 4 2 C4 3.32 4 4.64 4 6 C3.34 6 2.68 6 2 6 C2 6.99 2 7.98 2 9 C-0.64 9 -3.28 9 -6 9 C-4 6 -4 6 -1 5 C-0.67 3.35 -0.34 1.7 0 0 Z " fill="#D12403" transform="translate(274,174)"/>
<path d="M0 0 C-1.84210526 4.73684211 -1.84210526 4.73684211 -3.125 6.875 C-4.39586831 9.96139447 -4.18320886 12.70224056 -4 16 C-3.67 16.66 -3.34 17.32 -3 18 C-3.99 18 -4.98 18 -6 18 C-6.08119503 15.75059705 -6.13927819 13.50035129 -6.1875 11.25 C-6.22230469 9.99703125 -6.25710937 8.7440625 -6.29296875 7.453125 C-5.89286718 2.7372612 -5.04796454 0 0 0 Z " fill="#FDE8DD" transform="translate(207,315)"/>
<path d="M0 0 C0.7734375 0.495 0.7734375 0.495 1.5625 1 C5.80024909 2.73856373 9.64902396 2.45990674 13.9375 1 C14.618125 0.67 15.29875 0.34 16 0 C15.02516973 2.5491551 14.53222967 3.75009255 12.01171875 4.93359375 C5.75059571 6.29104732 5.75059571 6.29104732 1.9375 4.8125 C1.298125 4.214375 0.65875 3.61625 0 3 C0 2.01 0 1.02 0 0 Z " fill="#C43216" transform="translate(234,304)"/>
<path d="M0 0 C1.76953125 1.52734375 1.76953125 1.52734375 3 3 C2.15695312 2.97679687 1.31390625 2.95359375 0.4453125 2.9296875 C-0.65039062 2.91164063 -1.74609375 2.89359375 -2.875 2.875 C-3.96554687 2.85179687 -5.05609375 2.82859375 -6.1796875 2.8046875 C-9.1371051 2.69939466 -9.1371051 2.69939466 -11 5 C-13.125 4.625 -13.125 4.625 -15 4 C-10.29768623 0.14169126 -6.11121464 -1.29208538 0 0 Z " fill="#BC3621" transform="translate(273,291)"/>
<path d="M0 0 C2.125 0.375 2.125 0.375 4 1 C4.625 2.875 4.625 2.875 5 5 C4.34 5.66 3.68 6.32 3 7 C0.875 6.625 0.875 6.625 -1 6 C-1.625 4.125 -1.625 4.125 -2 2 C-1.34 1.34 -0.68 0.68 0 0 Z " fill="#C14431" transform="translate(245,235)"/>
<path d="M0 0 C1.875 1.5 1.875 1.5 3 3 C1.80375 2.896875 0.6075 2.79375 -0.625 2.6875 C-4.11559679 2.65644487 -5.83724368 3.2385682 -8.5 5.5 C-9.325 6.325 -10.15 7.15 -11 8 C-10.67842796 5.02545866 -10.37860258 3.40664722 -8.3125 1.1875 C-5.30660842 -0.35606595 -3.33699345 -0.42599916 0 0 Z " fill="#DE6F73" transform="translate(261,144)"/>
<path d="M0 0 C0.66 0.99 1.32 1.98 2 3 C1.34 3 0.68 3 0 3 C0 6.63 0 10.26 0 14 C1.32 14.66 2.64 15.32 4 16 C-0.75 15.25 -0.75 15.25 -3 13 C-3.50442453 7.75398486 -2.64964989 4.52648522 0 0 Z " fill="#C34630" transform="translate(205,318)"/>
<path d="M0 0 C1.98 0.99 1.98 0.99 4 2 C4 2.66 4 3.32 4 4 C4.66 4 5.32 4 6 4 C10 9.41176471 10 9.41176471 10 12 C9.01 12 8.02 12 7 12 C7 11.34 7 10.68 7 10 C6.34 10 5.68 10 5 10 C3.35 6.7 1.7 3.4 0 0 Z " fill="#E17873" transform="translate(226,160)"/>
<path d="M0 0 C0.66 0.33 1.32 0.66 2 1 C1.25 7.75 1.25 7.75 -1 10 C-4.625 10.125 -4.625 10.125 -8 10 C-8.33 9.34 -8.66 8.68 -9 8 C-6.03 8.495 -6.03 8.495 -3 9 C-3 7.68 -3 6.36 -3 5 C-2.34 5 -1.68 5 -1 5 C-0.67 3.35 -0.34 1.7 0 0 Z " fill="#C0422A" transform="translate(247,280)"/>
<path d="M0 0 C2.61173635 2.61173635 2.2981789 3.87198888 2.3125 7.5 C2.32925781 8.4796875 2.34601563 9.459375 2.36328125 10.46875 C2.18345703 11.72171875 2.18345703 11.72171875 2 13 C1.01 13.66 0.02 14.32 -1 15 C-0.67 10.05 -0.34 5.1 0 0 Z " fill="#DB6761" transform="translate(265,147)"/>
<path d="M0 0 C0.33 0 0.66 0 1 0 C1 1.65 1 3.3 1 5 C1.66 5 2.32 5 3 5 C3 6.65 3 8.3 3 10 C-0.35595828 9.40072174 -2.37801226 8.15377564 -5 6 C-4.67 5.34 -4.34 4.68 -4 4 C-2.515 4.99 -2.515 4.99 -1 6 C-0.67 4.02 -0.34 2.04 0 0 Z " fill="#F3ABBE" transform="translate(242,185)"/>
<path d="M0 0 C7.39449541 0.59633028 7.39449541 0.59633028 11 3 C10.67 3.99 10.34 4.98 10 6 C9.67 5.01 9.34 4.02 9 3 C7.1128125 2.938125 7.1128125 2.938125 5.1875 2.875 C4.47980469 2.85179687 3.77210938 2.82859375 3.04296875 2.8046875 C0.68640281 2.86745538 0.68640281 2.86745538 -2 5 C-1.125 1.125 -1.125 1.125 0 0 Z " fill="#FCE3D8" transform="translate(238,275)"/>
<path d="M0 0 C4.33034194 3.84919283 6.6560756 7.72289646 9 13 C8.01 13 7.02 13 6 13 C4 10 4 10 4 6 C3.34 6 2.68 6 2 6 C1.34 4.02 0.68 2.04 0 0 Z " fill="#C54838" transform="translate(279,298)"/>
<path d="M0 0 C0.99 0.33 1.98 0.66 3 1 C2.67 1.66 2.34 2.32 2 3 C2.99 2.67 3.98 2.34 5 2 C5 3.32 5 4.64 5 6 C3.35 6 1.7 6 0 6 C-0.38218767 4.34385343 -0.71395102 2.67542976 -1 1 C-0.67 0.67 -0.34 0.34 0 0 Z " fill="#CF2406" transform="translate(250,259)"/>
<path d="M0 0 C3.68428193 3.28953744 5.8406504 6.60132489 8 11 C7.67 11.99 7.34 12.98 7 14 C6.67 12.68 6.34 11.36 6 10 C5.01 10 4.02 10 3 10 C1.87119943 6.68885166 0.78697325 3.41021743 0 0 Z " fill="#C74A38" transform="translate(288,312)"/>
<path d="M0 0 C6.57142857 4 6.57142857 4 8 8 C4.21479387 7.45925627 2.40822445 5.92427254 0 3 C0 2.01 0 1.02 0 0 Z " fill="#DF6E6B" transform="translate(201,168)"/>
<path d="M0 0 C2.475 0.99 2.475 0.99 5 2 C4.01 4.31 3.02 6.62 2 9 C1.34 8.67 0.68 8.34 0 8 C0 5.36 0 2.72 0 0 Z " fill="#CA2914" transform="translate(252,168)"/>
<path d="M0 0 C0.66 0.33 1.32 0.66 2 1 C0.25 4.875 0.25 4.875 -2 6 C-2.68472665 7.88764903 -2.68472665 7.88764903 -3.125 10.0625 C-3.29257813 10.79597656 -3.46015625 11.52945313 -3.6328125 12.28515625 C-3.75398437 12.85105469 -3.87515625 13.41695312 -4 14 C-4.33 14 -4.66 14 -5 14 C-5.45772527 8.27843418 -4.54034087 5.50588838 -1 1 C-0.67 0.67 -0.34 0.34 0 0 Z " fill="#EF8B8F" transform="translate(205,154)"/>
<path d="M0 0 C1 3 1 3 -0.1875 6.125 C-2 9 -2 9 -4.11328125 9.6796875 C-4.73589844 9.78539062 -5.35851562 9.89109375 -6 10 C-5.18957164 8.51969728 -4.37659652 7.04078858 -3.5625 5.5625 C-2.88380859 4.32693359 -2.88380859 4.32693359 -2.19140625 3.06640625 C-1 1 -1 1 0 0 Z " fill="#C2442A" transform="translate(212,308)"/>
<path d="M0 0 C1 3 1 3 0.0625 5.0625 C-0.288125 5.701875 -0.63875 6.34125 -1 7 C-1 7.66 -1 8.32 -1 9 C-2.65 9.66 -4.3 10.32 -6 11 C-4.54955729 6.89041233 -2.48889248 3.56741255 0 0 Z " fill="#FADAE4" transform="translate(216,282)"/>
<path d="M0 0 C0.99 0.33 1.98 0.66 3 1 C0.525 4.465 0.525 4.465 -2 8 C-2.99 7.34 -3.98 6.68 -5 6 C-5 5.01 -5 4.02 -5 3 C-3.35 3 -1.7 3 0 3 C0 2.01 0 1.02 0 0 Z " fill="#DC5F52" transform="translate(261,162)"/>
<path d="M0 0 C0.99 0.495 0.99 0.495 2 1 C2.59355614 3.64860427 2.74209269 6.29197322 3 9 C2.01 8.67 1.02 8.34 0 8 C0 5.36 0 2.72 0 0 Z " fill="#DA6557" transform="translate(239,178)"/>
<path d="M0 0 C1.32 0 2.64 0 4 0 C4.33 2.64 4.66 5.28 5 8 C2.74754119 5.31158141 1.11786042 3.35358125 0 0 Z " fill="#FCE9DB" transform="translate(289,312)"/>
<path d="M0 0 C0.33 0 0.66 0 1 0 C1.33 3.3 1.66 6.6 2 10 C1.01 9.34 0.02 8.68 -1 8 C-0.67 5.36 -0.34 2.72 0 0 Z " fill="#C93729" transform="translate(202,160)"/>
<path d="M0 0 C0.66 0.33 1.32 0.66 2 1 C1.01 2.485 1.01 2.485 0 4 C-2.1640625 4.29296875 -2.1640625 4.29296875 -4.625 4.1875 C-5.44226563 4.16042969 -6.25953125 4.13335937 -7.1015625 4.10546875 C-8.04128906 4.05326172 -8.04128906 4.05326172 -9 4 C-9 3.67 -9 3.34 -9 3 C-8.43410156 2.86722656 -7.86820313 2.73445313 -7.28515625 2.59765625 C-6.18494141 2.33275391 -6.18494141 2.33275391 -5.0625 2.0625 C-4.33160156 1.88847656 -3.60070312 1.71445312 -2.84765625 1.53515625 C-1.00030102 1.16112431 -1.00030102 1.16112431 0 0 Z " fill="#BC3E29" transform="translate(248,304)"/>
<path d="M0 0 C2.33294775 -0.04241723 4.66702567 -0.04092937 7 0 C8 1 8 1 8.0625 4.0625 C8.041875 5.031875 8.02125 6.00125 8 7 C7.67 5.68 7.34 4.36 7 3 C6.34 3 5.68 3 5 3 C5 2.34 5 1.68 5 1 C3.35 1 1.7 1 0 1 C0 0.67 0 0.34 0 0 Z " fill="#C42917" transform="translate(271,173)"/>
</svg>
